<?xml version="1.0" standalone="no"?>
<!DOCTYPE svg PUBLIC "-//W3C//DTD SVG 20010904//EN"
 "http://www.w3.org/TR/2001/REC-SVG-20010904/DTD/svg10.dtd">
<svg version="1.0" xmlns="http://www.w3.org/2000/svg"
 width="756.000000pt" height="756.000000pt" viewBox="0 0 756.000000 756.000000"
 preserveAspectRatio="xMidYMid meet">
<metadata>
Created by potrace 1.14, written by Peter Selinger 2001-2017
</metadata>
<g transform="translate(0.000000,756.000000) scale(0.100000,-0.100000)"
fill="#000000" stroke="none">
<path d="M3890 7552 c-103 -14 -250 -73 -347 -139 -69 -46 -203 -181 -203
-203 0 -6 -4 -10 -10 -10 -5 0 -10 -4 -10 -10 0 -5 -13 -31 -28 -57 -83 -140
-115 -372 -77 -558 4 -22 21 -68 37 -102 15 -34 28 -64 28 -68 0 -16 92 -125
140 -165 29 -25 87 -62 128 -83 42 -20 78 -40 81 -42 2 -3 -40 -5 -95 -4 -189
2 -276 -18 -454 -103 -144 -69 -251 -142 -352 -240 -46 -46 -113 -99 -147
-118 -70 -38 -199 -160 -283 -265 -182 -229 -405 -606 -491 -830 -35 -90 -83
-240 -91 -282 -3 -12 -9 -31 -15 -41 -6 -11 -13 -36 -15 -56 -2 -19 -7 -39 -9
-44 -9 -13 -21 -124 -21 -187 0 -256 90 -379 299 -409 53 -8 202 49 227 87 3
6 36 9 73 8 l66 -2 57 -57 c69 -68 109 -102 121 -102 5 0 11 -4 13 -8 3 -9 84
-57 138 -83 55 -27 155 -64 295 -110 72 -23 132 -44 134 -46 10 -8 -10 -14
-55 -19 -86 -8 -112 -14 -118 -29 -3 -8 -28 -26 -57 -39 -63 -31 -142 -91
-208 -159 -56 -58 -121 -146 -121 -164 0 -6 -3 -13 -7 -15 -20 -8 -51 -89 -46
-119 5 -35 -1 -50 -61 -149 -117 -192 -281 -503 -292 -553 -3 -12 -7 -43 -8
-69 -10 -142 144 -255 263 -193 19 9 64 47 100 84 74 74 81 83 140 169 45 66
52 73 46 43 -2 -11 -7 -53 -10 -94 -4 -40 -9 -96 -12 -123 -3 -27 -5 -74 -5
-104 0 -30 0 -77 0 -105 -1 -220 -1 -270 5 -347 4 -48 9 -93 11 -100 3 -7 7
-42 11 -77 3 -36 8 -67 10 -71 2 -3 6 -27 9 -54 4 -26 13 -58 22 -71 18 -27
81 -67 136 -84 36 -12 37 -13 57 -104 11 -51 22 -103 25 -117 2 -14 9 -45 16
-70 11 -40 22 -99 34 -185 2 -16 7 -52 11 -79 8 -56 30 -123 47 -143 31 -37
89 -54 188 -56 112 -1 189 59 207 160 11 64 2 370 -12 393 -2 4 -7 32 -10 63
l-6 57 60 0 c42 0 61 -4 62 -12 1 -7 3 -56 4 -108 11 -334 14 -391 25 -431 26
-97 87 -140 208 -144 41 -1 90 2 109 8 65 20 114 98 138 218 24 119 36 222 50
412 4 59 19 146 27 151 1 1 20 13 41 25 20 12 37 26 37 31 0 5 19 6 43 3 217
-29 417 95 495 307 28 78 44 123 47 140 2 10 7 33 13 51 5 19 8 52 8 74 l-1
40 -146 -3 c-80 -2 -162 1 -183 6 -40 11 -206 130 -205 147 0 5 4 19 8 30 4
10 4 39 -1 65 -5 25 -11 91 -13 147 -3 56 -5 106 -6 110 -5 31 7 18 45 -49 82
-144 181 -254 263 -293 110 -52 245 36 260 169 10 86 -60 255 -210 508 -133
224 -155 269 -146 300 8 29 -31 116 -94 208 -53 78 -168 195 -238 242 l-41 27
84 0 c46 -1 108 2 138 6 30 3 71 8 91 10 68 8 222 66 300 112 71 42 168 128
218 193 l19 25 11 -40 c13 -51 73 -151 107 -180 70 -60 169 -82 247 -56 37 13
38 12 83 -29 71 -65 163 -103 254 -106 41 -1 81 3 88 8 6 6 12 8 12 4 0 -9 90
39 115 61 60 52 95 155 89 258 -7 120 -30 188 -134 395 -44 86 -80 160 -80
164 0 3 -9 25 -19 49 -36 80 -119 302 -126 335 -9 47 -162 485 -215 618 -75
188 -197 359 -301 421 -15 9 -37 38 -49 64 -41 92 -162 256 -244 331 -16 16
-28 30 -25 32 2 2 24 6 49 9 142 19 280 99 344 201 97 154 71 339 -64 446 -77
61 -165 93 -260 94 l-35 0 0 121 c0 105 -6 186 -18 235 -55 224 -129 352 -295
516 -30 30 -61 54 -69 54 -7 0 -13 4 -13 9 0 15 -162 88 -225 102 -59 12 -185
18 -235 11z"/>
</g>
</svg>
